<svg width="2494" height="2048" viewBox="0 0 2494 2048" fill="none" xmlns="http://www.w3.org/2000/svg">
<g id="Illustration 10">
<g id="Background">
<g id="Background Object / Table / 2">
<g id="Group 36">
<path id="Stroke 1" d="M1113.48 1450.62L1042.01 1299.18" stroke="#CCE3FF" stroke-width="12"/>
<path id="Stroke 2" d="M1192.82 1212.96L1042.01 1299.18" stroke="#CCE3FF" stroke-width="12"/>
<path id="Stroke 4" d="M1191.06 1214.82H1252.58" stroke="#CCE3FF" stroke-width="12"/>
<path id="Fill 6" fill-rule="evenodd" clip-rule="evenodd" d="M1067.5 1464.4H1201.62C1201.62 1452.2 1191.73 1442.32 1179.53 1442.32H1089.58C1077.39 1442.32 1067.5 1452.2 1067.5 1464.4Z" fill="#DCEEFF"/>
<path id="Fill 8" fill-rule="evenodd" clip-rule="evenodd" d="M1309.09 1265.32C1309.09 1234.12 1283.79 1208.82 1252.58 1208.82C1221.37 1208.82 1196.07 1234.12 1196.07 1265.32" fill="#DCEEFF"/>
<path id="Fill 10" fill-rule="evenodd" clip-rule="evenodd" d="M912.026 2020.15H924.692L1002.52 1501.76H958.725L912.026 2020.15Z" fill="#B6D4FF"/>
<path id="Fill 12" fill-rule="evenodd" clip-rule="evenodd" d="M1133.76 2020.15H1146.43L1224.26 1501.76H1180.46L1133.76 2020.15Z" fill="#B6D4FF"/>
<path id="Fill 14" fill-rule="evenodd" clip-rule="evenodd" d="M1444.46 1305.69H1633.81L1589.38 1452.13H1400.03L1444.46 1305.69Z" fill="#DCEEFF"/>
<path id="Fill 16" fill-rule="evenodd" clip-rule="evenodd" d="M1620.48 1315.11L1582.55 1440.14H1413.1L1451.03 1315.11H1620.48Z" fill="white"/>
<path id="Fill 18" fill-rule="evenodd" clip-rule="evenodd" d="M1589.55 1353.6L1587.74 1359.57H1448.65L1450.46 1353.6H1589.55Z" fill="#B6D4FF"/>
<path id="Fill 20" fill-rule="evenodd" clip-rule="evenodd" d="M1580.68 1365.77L1578.87 1371.75H1444.33L1446.14 1365.77H1580.68Z" fill="#B6D4FF"/>
<path id="Fill 22" fill-rule="evenodd" clip-rule="evenodd" d="M1538.53 1377.95L1536.72 1383.93H1440.13L1441.94 1377.95H1538.53Z" fill="#B6D4FF"/>
<path id="Fill 24" fill-rule="evenodd" clip-rule="evenodd" d="M1261.57 1464.17H1450.92V1452.13H1261.57V1464.17Z" fill="#DCEEFF"/>
<path id="Fill 26" fill-rule="evenodd" clip-rule="evenodd" d="M1450.92 1464.17H1589.31V1452.13H1450.92V1464.17Z" fill="#ECF6FF"/>
<path id="Fill 27" fill-rule="evenodd" clip-rule="evenodd" d="M1633.65 1305.69H1645.29L1600.86 1452.13H1589.22L1633.65 1305.69Z" fill="#ECF6FF"/>
<path id="Fill 28" fill-rule="evenodd" clip-rule="evenodd" d="M860.835 1501.76H1576.11V1464.17H860.835V1501.76Z" fill="#B6D4FF"/>
<path id="Fill 29" fill-rule="evenodd" clip-rule="evenodd" d="M1524.38 1501.76H1803.44V1464.17H1524.38V1501.76Z" fill="#DCEEFF"/>
<path id="Fill 30" fill-rule="evenodd" clip-rule="evenodd" d="M1768.03 2020.15H1780.7L1734 1501.76H1690.2L1768.03 2020.15Z" fill="#DCEEFF"/>
<path id="Fill 31" fill-rule="evenodd" clip-rule="evenodd" d="M1545.44 2020.15H1558.1L1511.4 1501.76H1467.6L1545.44 2020.15Z" fill="#DCEEFF"/>
<path id="Fill 32" fill-rule="evenodd" clip-rule="evenodd" d="M1596.5 1329.97L1594.69 1335.95H1455.6L1457.41 1329.97H1596.5Z" fill="#B6D4FF"/>
<path id="Fill 33" fill-rule="evenodd" clip-rule="evenodd" d="M1577.99 1342.15L1576.18 1348.13H1452.27L1454.07 1342.15H1577.99Z" fill="#B6D4FF"/>
<path id="Fill 34" fill-rule="evenodd" clip-rule="evenodd" d="M1549.04 1313.54L1525.38 1316.41L1523.48 1313.43L1524.73 1310.72L1522.93 1308.56L1545.04 1305.69L1548.37 1307.69L1545.58 1310.48L1549.04 1313.54Z" fill="#B6D4FF"/>
</g>
</g>
<g id="Background Object / Chair / 2">
<g id="Group 14">
<path id="Fill 1" fill-rule="evenodd" clip-rule="evenodd" d="M938.105 1649.84V1652.42C938.105 1673.97 921.379 1691.43 900.764 1691.43H608.265C563.147 1691.43 528.426 1648.16 534.653 1599.67L567.675 1329.47C570.535 1307.1 588.156 1290.44 608.979 1290.44H695.67C716.48 1290.44 734.099 1307.1 736.976 1329.47L769.999 1599.67C770.251 1601.59 770.43 1603.52 770.536 1605.44L770.713 1605.41C770.713 1605.41 776.821 1649.84 833.6 1649.84H938.105Z" fill="#DCEEFF"/>
<path id="Fill 4" fill-rule="evenodd" clip-rule="evenodd" d="M626.716 1995.79C626.716 2009.57 615.539 2020.74 601.755 2020.74C587.969 2020.74 576.795 2009.57 576.795 1995.79C576.795 1982.01 587.969 1970.84 601.755 1970.84C615.539 1970.84 626.716 1982.01 626.716 1995.79Z" fill="#B6D4FF"/>
<path id="Fill 6_2" fill-rule="evenodd" clip-rule="evenodd" d="M854.478 2000.79H607.811C598.363 2000.79 590.633 1993.06 590.633 1983.62C590.633 1974.17 598.363 1966.44 607.811 1966.44H854.478C863.925 1966.44 871.656 1974.17 871.656 1983.62C871.656 1993.06 863.925 2000.79 854.478 2000.79Z" fill="#CCE3FF"/>
<path id="Fill 8_2" fill-rule="evenodd" clip-rule="evenodd" d="M718.488 1992.62H743.802V1690.39H718.488V1992.62Z" fill="#CCE3FF"/>
<path id="Fill 10_2" fill-rule="evenodd" clip-rule="evenodd" d="M817.882 1690.39L731.144 1729.88L644.408 1690.39H817.882Z" fill="#CCE3FF"/>
<path id="Fill 11" fill-rule="evenodd" clip-rule="evenodd" d="M733.063 2000.79H701.055C691.607 2000.79 683.876 1993.06 683.876 1983.62C683.876 1974.17 691.607 1966.44 701.055 1966.44H733.063C742.51 1966.44 750.241 1974.17 750.241 1983.62C750.241 1993.06 742.51 2000.79 733.063 2000.79Z" fill="#B6D4FF"/>
<path id="Fill 12_2" fill-rule="evenodd" clip-rule="evenodd" d="M712.066 1995.79C712.066 2009.57 700.891 2020.74 687.107 2020.74C673.32 2020.74 662.146 2009.57 662.146 1995.79C662.146 1982.01 673.32 1970.84 687.107 1970.84C700.891 1970.84 712.066 1982.01 712.066 1995.79Z" fill="#B6D4FF"/>
<path id="Fill 13" fill-rule="evenodd" clip-rule="evenodd" d="M887.146 1995.79C887.146 2009.57 875.971 2020.74 862.186 2020.74C848.4 2020.74 837.227 2009.57 837.227 1995.79C837.227 1982.01 848.4 1970.84 862.186 1970.84C875.971 1970.84 887.146 1982.01 887.146 1995.79Z" fill="#B6D4FF"/>
</g>
</g>
<g id="Background Object / Closet / 1">
<g id="Group 36_2">
<path id="Fill 1_2" fill-rule="evenodd" clip-rule="evenodd" d="M1843.08 2022.77H1884.38V1888.62H1843.08V2022.77Z" fill="#DCEEFF"/>
<path id="Fill 2" fill-rule="evenodd" clip-rule="evenodd" d="M2187.12 2022.77H2228.43V1888.62H2187.12V2022.77Z" fill="#DCEEFF"/>
<path id="Fill 3" fill-rule="evenodd" clip-rule="evenodd" d="M1989.58 2022.77H2030.88V1888.62H1989.58V2022.77Z" fill="#B6D4FF"/>
<path id="Fill 4_2" fill-rule="evenodd" clip-rule="evenodd" d="M2333.62 2022.77H2374.92V1888.62H2333.62V2022.77Z" fill="#B6D4FF"/>
<path id="Fill 5" fill-rule="evenodd" clip-rule="evenodd" d="M1989.34 1912.42H2374.68V772.861H1989.34V1912.42Z" fill="#B6D4FF"/>
<path id="Fill 6_3" fill-rule="evenodd" clip-rule="evenodd" d="M1843.85 1912.42H2229.2V772.861H1843.85V1912.42Z" fill="#DCEEFF"/>
<path id="Fill 7" fill-rule="evenodd" clip-rule="evenodd" d="M2106.1 695.371C2106.1 728.114 2088.79 756.842 2062.84 772.86H1967.57C1941.62 756.842 1924.31 728.114 1924.31 695.371C1924.31 680.134 1928.06 665.789 1934.67 653.191H2095.74C2102.35 665.789 2106.1 680.134 2106.1 695.371Z" fill="#DCEEFF"/>
<path id="Fill 9" fill-rule="evenodd" clip-rule="evenodd" d="M2130.26 772.84H2169.54V622.823H2130.26V772.84Z" fill="#DCEEFF"/>
<path id="Fill 11_2" fill-rule="evenodd" clip-rule="evenodd" d="M2090.98 772.84H2130.26V622.823H2090.98V772.84Z" fill="#CCE3FF"/>
<path id="Fill 12_3" fill-rule="evenodd" clip-rule="evenodd" d="M2169.54 772.84H2208.82V622.823H2169.54V772.84Z" fill="#CCE3FF"/>
<path id="Fill 13_2" fill-rule="evenodd" clip-rule="evenodd" d="M2314.35 772.84H2208.82V622.823H2314.35C2318.76 622.823 2322.33 626.395 2322.33 630.804V764.86C2322.33 769.267 2318.76 772.84 2314.35 772.84Z" fill="#B6D4FF"/>
<path id="Fill 14_2" fill-rule="evenodd" clip-rule="evenodd" d="M2243.44 682.449H2287.71V667.595H2243.44V682.449Z" fill="#CCE3FF"/>
<path id="Fill 15" fill-rule="evenodd" clip-rule="evenodd" d="M1878.35 1874.87H2194.86V1546.88H1878.35V1874.87Z" fill="#CCE3FF"/>
<path id="Fill 16_2" fill-rule="evenodd" clip-rule="evenodd" d="M1878.35 1874.87H1987.55V1546.88H1878.35V1874.87Z" fill="#B6D4FF"/>
<path id="Fill 17" fill-rule="evenodd" clip-rule="evenodd" d="M1878.35 1506.17H2194.86V1178.18H1878.35V1506.17Z" fill="#CCE3FF"/>
<path id="Fill 18_2" fill-rule="evenodd" clip-rule="evenodd" d="M1878.35 1506.17H1987.55V1178.18H1878.35V1506.17Z" fill="#B6D4FF"/>
<path id="Fill 19" fill-rule="evenodd" clip-rule="evenodd" d="M1878.35 1137.48H2194.86V809.489H1878.35V1137.48Z" fill="#CCE3FF"/>
<path id="Fill 20_2" fill-rule="evenodd" clip-rule="evenodd" d="M1878.35 1137.48H1987.55V809.489H1878.35V1137.48Z" fill="#B6D4FF"/>
<path id="Fill 21" fill-rule="evenodd" clip-rule="evenodd" d="M1954.13 1874.87H1985.46V1755.23H1954.13V1874.87Z" fill="#DCEEFF"/>
<path id="Fill 22_2" fill-rule="evenodd" clip-rule="evenodd" d="M1922.81 1874.87H1954.13V1755.23H1922.81V1874.87Z" fill="#CCE3FF"/>
<path id="Fill 23" fill-rule="evenodd" clip-rule="evenodd" d="M1985.46 1874.87H2016.79V1755.23H1985.46V1874.87Z" fill="#CCE3FF"/>
<path id="Fill 24_2" fill-rule="evenodd" clip-rule="evenodd" d="M2099.32 1874.87H2016.78V1755.23H2099.32C2103.73 1755.23 2107.3 1758.81 2107.3 1763.21V1866.89C2107.3 1871.29 2103.73 1874.87 2099.32 1874.87Z" fill="#B6D4FF"/>
<path id="Fill 25" fill-rule="evenodd" clip-rule="evenodd" d="M2030.2 1784.51H2093.89V1772.66H2030.2V1784.51Z" fill="#CCE3FF"/>
<path id="Fill 26_2" fill-rule="evenodd" clip-rule="evenodd" d="M2044.39 1802.78H2079.7V1790.94H2044.39V1802.78Z" fill="#CCE3FF"/>
<path id="Fill 27_2" fill-rule="evenodd" clip-rule="evenodd" d="M2063.78 1086.68C2061.35 1107.09 2051.02 1125.08 2035.92 1137.48H1937.18C1922.08 1125.08 1911.74 1107.09 1909.3 1086.68H2063.78Z" fill="#DCEEFF"/>
<path id="Fill 28_2" fill-rule="evenodd" clip-rule="evenodd" d="M2063.78 1044.28C2059.19 1082.84 2026.36 1112.75 1986.54 1112.75C1946.73 1112.75 1913.9 1082.84 1909.3 1044.28H2063.78Z" fill="#DCEEFF"/>
<path id="Fill 29_2" fill-rule="evenodd" clip-rule="evenodd" d="M2063.78 1001.94C2061.35 1022.34 2051.02 1040.33 2035.92 1052.73H1937.18C1922.08 1040.33 1911.74 1022.34 1909.3 1001.94H2063.78Z" fill="#DCEEFF"/>
<path id="Fill 30_2" fill-rule="evenodd" clip-rule="evenodd" d="M2063.78 959.533C2059.19 998.093 2026.36 1028.01 1986.54 1028.01C1946.73 1028.01 1913.9 998.093 1909.3 959.533H2063.78Z" fill="#DCEEFF"/>
<path id="Fill 31_2" fill-rule="evenodd" clip-rule="evenodd" d="M2012.92 1427.38C2012.92 1457.41 2009.71 1484.87 2004.38 1506.17H1948.42C1943.09 1484.87 1939.88 1457.41 1939.88 1427.38" fill="#ECF6FF"/>
<path id="Stroke 32" d="M2010.15 1440.58C2022.83 1443.08 2031.09 1455.39 2028.58 1468.08C2026.08 1480.76 2013.76 1489.01 2001.08 1486.51" stroke="#ECF6FF" stroke-width="8"/>
<path id="Fill 33_2" fill-rule="evenodd" clip-rule="evenodd" d="M2124.99 1427.38C2124.99 1457.41 2121.79 1484.87 2116.45 1506.17H2060.5C2055.17 1484.87 2051.96 1457.41 2051.96 1427.38" fill="#ECF6FF"/>
<path id="Stroke 34" d="M2110.1 1440.58C2122.78 1443.08 2131.04 1455.39 2128.53 1468.08C2126.03 1480.76 2113.71 1489.01 2101.03 1486.51" stroke="#ECF6FF" stroke-width="8"/>
</g>
</g>
</g>
<g id="Person / Girl / 3">
<g id="Girl / Head / 1">
<g id="Group 23">
<path id="Hair" d="M663.977 1081.89C602.488 1090.47 628.249 1161.28 645.532 1199.52C665.818 1244.4 648.048 1274.49 648.048 1274.49L552.999 1240.75C587.884 1196.39 549.358 1171.68 558.842 1118.79C567.35 1071.34 613.529 1049.93 642.706 1050.94C657.27 1051.45 669.189 1055.2 678.624 1060.01C678.983 1060.19 679.325 1060.38 679.651 1060.59C696.888 1042.89 720.748 1032.31 748.323 1032.31C805.032 1032.31 855.982 1077.05 855.982 1136.46C855.982 1195.87 810.012 1244.02 753.302 1244.02C696.593 1244.02 650.621 1195.87 650.621 1136.46C650.621 1116.16 655.41 1097.57 663.977 1081.89Z" fill="#19141E"/>
<path id="Fill 5_2" fill-rule="evenodd" clip-rule="evenodd" d="M763.333 1246.86C763.333 1246.86 742.246 1247.49 733.259 1242.58L762.213 1260.76L763.333 1246.86Z" fill="#CF3E83"/>
<g id="Face color">
<path id="Face" d="M841.943 1167.39C838.781 1191.86 830.578 1226.33 810.326 1239.8C799.58 1246.94 780.011 1247.82 763.329 1246.86L759.513 1294.23L705.079 1271.82C705.079 1271.82 710.314 1219.55 712.582 1199.5C701.64 1189.59 682.999 1184.99 682.966 1168.15C682.966 1162.31 686.375 1152.22 698.964 1152.18C715.858 1152.17 713.445 1172.42 713.445 1172.42C715.538 1173.23 717.637 1173.19 719.73 1172.44C736.458 1171.74 782.987 1164.74 814.623 1110.68C818.315 1128.88 825.989 1151.56 841.943 1167.39Z" fill="#ED4848"/>
</g>
<path id="Fill 9_2" fill-rule="evenodd" clip-rule="evenodd" d="M809.172 1172.38L821.239 1201.63L807.24 1201.35L809.172 1172.38Z" fill="#405FD3"/>
<path id="Fill 11_3" fill-rule="evenodd" clip-rule="evenodd" d="M796.324 1173.64C796.023 1179.49 792.586 1184.04 788.646 1183.81C784.708 1183.59 781.756 1178.67 782.058 1172.82C782.36 1166.98 785.796 1162.42 789.735 1162.65C793.675 1162.88 796.625 1167.8 796.324 1173.64Z" fill="#0D0B6D"/>
<path id="Fill 13_3" fill-rule="evenodd" clip-rule="evenodd" d="M833.321 1172.71C833.019 1178.55 829.583 1183.11 825.643 1182.88C821.703 1182.65 818.753 1177.73 819.053 1171.89C819.355 1166.04 822.791 1161.49 826.731 1161.72C830.671 1161.94 833.621 1166.87 833.321 1172.71Z" fill="#0D0B6D"/>
<path id="Stroke 15" d="M803.805 1215.36C803.805 1215.36 794.683 1218.31 785.541 1208.14" stroke="#1C295E" stroke-width="3"/>
<path id="Fill 17_2" opacity="0.402786" fill-rule="evenodd" clip-rule="evenodd" d="M763.298 1246.86C763.298 1246.86 742.213 1247.49 733.224 1242.58L762.178 1260.75L763.298 1246.86Z" fill="black"/>
</g>
</g>
<g id="Girl / Body / 2">
<g id="Group 24">
<path id="Fill 6_4" fill-rule="evenodd" clip-rule="evenodd" d="M678.569 1512.85L667.3 1512.69C667.3 1512.69 667.317 1512.51 667.331 1512.13C671.212 1512.41 674.965 1512.64 678.569 1512.85Z" fill="#C83820"/>
<g id="Sweater color">
<path id="Sweater" d="M908.175 1634.96L870.976 1639.62L811.065 1545.92L808.878 1514.78L717.608 1513.42L678.65 1512.85H678.568C674.964 1512.64 671.212 1512.41 667.333 1512.13C618.264 1508.71 550.279 1499.17 545.615 1472.75C537.152 1424.91 601.174 1332.06 608.741 1321.3C609.213 1320.63 609.456 1320.27 609.456 1320.27C620.187 1304.94 630.984 1293.02 641.062 1286.68C660.663 1274.34 679.041 1271.63 696.506 1271.68L701.185 1237.78L772.433 1247.61L768.552 1275.79C789.474 1277.79 803.709 1281.88 817.032 1294.11C859.808 1333.38 862.955 1480.45 862.955 1480.45L908.175 1634.96Z" fill="#CE3D29"/>
</g>
<path id="Fill 10_3" fill-rule="evenodd" clip-rule="evenodd" d="M717.608 1513.42V1514.07C717.608 1514.07 701.268 1514.11 678.649 1512.85L717.608 1513.42Z" fill="#C83820"/>
<path id="Stroke 12" opacity="0.201149" d="M807.568 1514.4C812.8 1447.96 849.01 1433.91 822.918 1359.4" stroke="black" stroke-width="3"/>
<path id="Fill 14_3" fill-rule="evenodd" clip-rule="evenodd" d="M869.171 1596.59L733.107 1580.91C728.65 1580.39 725.716 1576.01 726.937 1571.7L780.699 1381.76C781.671 1378.33 784.988 1376.11 788.533 1376.52L924.598 1392.2C929.053 1392.71 931.989 1397.09 930.766 1401.41L877.005 1591.34C876.033 1594.78 872.715 1597 869.171 1596.59Z" fill="#18181C"/>
<path id="iPad" d="M748.346 1525.61C748.605 1525.68 748.867 1525.75 749.132 1525.83C758.585 1528.41 768.248 1529.97 781.686 1528.2C790.331 1527.07 797.762 1525.59 797.679 1524.21C797.441 1520.72 793.245 1519.94 793.245 1519.94L785.173 1520.33L777.407 1519.87C777.407 1519.87 813.084 1513.13 813.084 1512.08C812.974 1508.4 807.118 1506.91 807.118 1506.91C807.118 1506.91 819.386 1504.96 819.245 1503C818.911 1498.04 813.433 1497.66 813.433 1497.66C813.433 1497.66 814.953 1496.35 814.8 1495.14C814.2 1490.25 805.472 1489.44 801.317 1488.84C801.317 1488.84 787.18 1488.65 782.97 1487.6C771.896 1484.83 765.306 1482.36 761.171 1480.3L788.799 1382.7C789.771 1379.26 793.089 1377.04 796.633 1377.45L932.698 1393.13C937.153 1393.65 940.088 1398.03 938.865 1402.34L885.105 1592.28C884.133 1595.71 880.816 1597.93 877.271 1597.52L741.206 1581.84C736.751 1581.33 733.816 1576.95 735.037 1572.63L748.346 1525.61Z" fill="#FCBDA4"/>
<g id="Skin color">
<path id="Skin" fill-rule="evenodd" clip-rule="evenodd" d="M813.084 1512.08C812.973 1508.4 807.117 1506.91 807.117 1506.91C807.117 1506.91 819.385 1504.96 819.245 1503C818.911 1498.04 813.433 1497.66 813.433 1497.66C813.433 1497.66 814.953 1496.35 814.8 1495.14C814.244 1490.61 806.717 1489.58 802.308 1488.98C801.956 1488.93 801.624 1488.88 801.317 1488.84C801.317 1488.84 787.18 1488.65 782.97 1487.6C761.972 1482.36 757.093 1478.18 754.515 1475.82C754.436 1475.75 754.36 1475.68 754.286 1475.61C754.072 1475.41 753.875 1475.23 753.677 1475.07C753.822 1474.91 753.986 1474.65 754.158 1474.37C754.4 1473.99 754.657 1473.58 754.893 1473.41L758.481 1460.26C755.854 1460.54 753.286 1460.63 750.742 1460.72C747.171 1460.84 743.646 1460.97 740.072 1461.63C730.325 1463.42 724.554 1465.68 724.554 1465.68L712.118 1469.94L703.098 1503.31C706.513 1506.35 714.696 1512.34 720.247 1515.37C730.964 1521.21 735.684 1522.39 742.928 1524.22C744.145 1524.52 745.433 1524.85 746.833 1525.21C746.991 1525.25 747.151 1525.3 747.313 1525.34C747.902 1525.49 748.508 1525.65 749.132 1525.83C758.585 1528.41 768.247 1529.97 781.686 1528.2C790.331 1527.07 797.762 1525.59 797.679 1524.21C797.441 1520.72 793.245 1519.94 793.245 1519.94L785.173 1520.33L777.407 1519.87C777.407 1519.87 813.084 1513.13 813.084 1512.08ZM928.01 1660.59C926.493 1657.61 916.08 1645.1 907.529 1635.04L871.924 1639.5C867.847 1663.54 884.786 1697.91 884.786 1697.91C884.786 1697.91 875.975 1692.53 874.222 1697.23C873.441 1699.33 871.674 1716.04 904.68 1717.16C908.184 1717.28 916.613 1710.15 916.613 1710.15C916.613 1710.15 910.467 1721.89 919.878 1724.2C919.878 1724.2 935.047 1701.47 935.279 1696.41C935.51 1691.36 930.642 1665.76 928.01 1660.59Z" fill="#E576C6"/>
</g>
<path id="Stroke 4_2" opacity="0.148065" d="M891.525 1652.05C891.525 1652.05 896.157 1669.54 912.051 1674.99C917.611 1676.9 916.223 1699.4 929.844 1696.71" stroke="black" stroke-width="3"/>
<path id="Fill 20_3" fill-rule="evenodd" clip-rule="evenodd" d="M802.624 1395.14C801.552 1398.51 799.266 1400.79 797.516 1400.23C795.766 1399.68 795.217 1396.49 796.288 1393.13C797.36 1389.76 799.646 1387.48 801.396 1388.04C803.145 1388.6 803.695 1391.78 802.624 1395.14Z" fill="#020101"/>
<path id="Stroke 22" opacity="0.200498" d="M665.568 1372.58L631.224 1429.44L716.614 1463.23" stroke="black" stroke-width="3"/>
</g>
</g>
<g id="Girl / Legs / 2">
<g id="Group 15">
<g id="Shoes">
<path id="Shoes_2" fill-rule="evenodd" clip-rule="evenodd" d="M1172.75 1818.34L1155.93 1785.25L1115.47 1791.35L1170.51 1881.57L1291.23 1801.45C1249.68 1792.18 1172.75 1818.34 1172.75 1818.34ZM983.701 1992.74L987.91 1956.01L950.933 1938.84L945.468 2044.05L1091.45 2043.8C1062.01 2013.27 983.701 1992.74 983.701 1992.74Z" fill="#0D0B6D"/>
</g>
<g id="Skin color_2">
<path id="Skin_2" fill-rule="evenodd" clip-rule="evenodd" d="M1160.19 1789.95L1119.18 1798.51L1142.8 1836.39L1176.8 1815.67L1160.19 1789.95ZM987.951 1963.5L949.164 1948.09L947.972 1992.54L987.62 1994L987.951 1963.5Z" fill="#E576C6"/>
</g>
<g id="Pants">
<path id="Pants_2" d="M1046.57 1754.86L1026.49 1972.75H933.51L937.637 1656.38L760.157 1657.6C709.526 1657.6 660.555 1614.12 664.066 1563.59L669.586 1512.14L940.623 1432.07C990.799 1420.73 1008.2 1435.72 1040.73 1493.62L1184.35 1788.02L1105.45 1840.74L1046.57 1754.86Z" fill="#2F2F3D"/>
</g>
<g id="Overlay">
<path id="Fill 13_4" opacity="0.150484" fill-rule="evenodd" clip-rule="evenodd" d="M963.267 1530.88L760.157 1657.6L937.637 1656.38L933.51 1972.75H1026.49L1058.37 1626.75C1066.23 1563.8 1026.83 1530.88 963.267 1530.88Z" fill="#18181C"/>
</g>
</g>
</g>
</g>
</g>
</svg>
