<svg width="842" height="936" viewBox="0 0 842 936" fill="none" xmlns="http://www.w3.org/2000/svg">
<g clip-path="url(#clip0)">
<rect width="842" height="936" fill="white"/>
<path d="M552.239 103.299C532.746 114.839 527.176 134.735 524.869 142.932C524.312 144.921 517.788 169.353 529.086 194.82C532.427 202.38 536.008 210.18 544.123 213.92C548.817 216.148 553.034 215.989 569.583 214.557C577.301 213.92 585.655 213.124 594.566 212.169C600.851 204.131 611.672 188.055 614.854 165.454C615.411 161.236 621.935 110.939 594.566 97.5691C576.664 88.7354 555.103 101.548 552.239 103.299Z" fill="#8E8E8E"/>
<path d="M600.056 540.769C607.438 540.769 613.422 534.996 613.422 527.876C613.422 520.756 607.438 514.984 600.056 514.984C592.674 514.984 586.689 520.756 586.689 527.876C586.689 534.996 592.674 540.769 600.056 540.769Z" fill="#898989"/>
<path d="M596.396 520.395C601.801 520.395 606.182 515.835 606.182 510.209C606.182 504.583 601.801 500.022 596.396 500.022C590.991 500.022 586.61 504.583 586.61 510.209C586.61 515.835 590.991 520.395 596.396 520.395Z" fill="#262626"/>
<path d="M727.196 239.466C733.129 239.466 737.937 234.335 737.937 228.006C737.937 221.677 733.129 216.546 727.196 216.546C721.264 216.546 716.456 221.677 716.456 228.006C716.456 234.335 721.264 239.466 727.196 239.466Z" fill="#262626"/>
<path d="M493.919 310.295C492.169 307.51 489.304 310.136 488.111 312.046C485.645 316.025 484.053 320.96 485.883 325.496C487.236 328.918 490.577 331.783 494.476 331.226C498.056 330.748 500.761 327.804 500.682 324.222C500.682 323.267 499.329 322.551 498.613 323.347C494.396 328.679 489.225 336.24 493.442 343.084C496.386 347.779 503.626 348.416 506.49 343.322C505.774 343.243 505.058 343.163 504.342 343.004C504.74 345.232 505.137 347.461 505.456 349.689C505.694 351.201 508.002 350.565 507.763 349.052C507.365 346.824 506.967 344.596 506.649 342.367C506.49 341.333 504.899 341.253 504.501 342.049C503.228 344.277 500.364 345.073 498.056 343.959C495.51 342.686 494.396 339.821 494.396 337.035C494.396 332.42 497.659 328.361 500.364 324.939C499.648 324.62 499.011 324.382 498.295 324.063C498.375 327.087 495.431 329.316 492.487 328.679C490.259 328.202 488.827 326.292 488.031 324.222C487.236 322.074 487.315 319.925 487.952 317.776C488.031 317.617 491.294 310.534 491.771 311.33C492.646 312.763 494.715 311.569 493.919 310.295Z" fill="#3A3A3A"/>
<path d="M587.962 617.01C594.089 621.068 599.26 626.241 603.397 632.29C604.273 633.563 606.341 632.369 605.466 631.096C601.09 624.729 595.68 619.318 589.235 615.02C587.883 614.065 586.689 616.134 587.962 617.01Z" fill="#3A3A3A"/>
<path d="M603.477 621.387C604.75 622.899 605.943 624.49 607.216 626.003C608.171 627.196 609.842 625.525 608.887 624.331C607.614 622.819 606.421 621.228 605.148 619.715C604.193 618.522 602.522 620.273 603.477 621.387Z" fill="#3A3A3A"/>
<path d="M596.157 599.103C601.647 604.197 606.182 610.006 609.683 616.612C610.399 617.965 612.468 616.771 611.752 615.418C608.171 608.653 603.477 602.605 597.828 597.432C596.714 596.318 595.043 598.069 596.157 599.103Z" fill="#3A3A3A"/>
<path d="M46.0618 688.714C47.8122 705.984 50.8355 723.015 55.0524 739.886C55.4502 741.398 57.7575 740.762 57.3597 739.25C53.2224 722.617 50.1991 705.745 48.4487 688.714C48.2896 687.202 45.9027 687.202 46.0618 688.714Z" fill="#E8E8E8"/>
<path d="M55.5299 740.682C71.2037 744.741 87.5141 744.741 103.188 740.682C104.7 740.284 104.063 737.976 102.551 738.374C87.2754 742.353 71.4424 742.353 56.1664 738.374C54.7343 737.976 54.0978 740.284 55.5299 740.682Z" fill="#E8E8E8"/>
<path d="M105.018 738.295C106.052 721.343 107.405 704.392 108.996 687.441C109.155 685.929 106.768 685.929 106.609 687.441C105.018 704.392 103.665 721.343 102.631 738.295C102.551 739.807 104.938 739.807 105.018 738.295Z" fill="#E8E8E8"/>
<path d="M47.4144 689.988C67.2255 694.046 87.5935 693.887 107.405 689.43C108.916 689.112 108.28 686.804 106.768 687.123C87.4344 691.42 67.4642 691.659 48.0509 687.68C46.5392 687.361 45.9027 689.669 47.4144 689.988Z" fill="#E8E8E8"/>
<path d="M47.1758 695.718C47.8123 698.981 51.9495 698.821 54.4955 699.06C60.9401 699.617 67.4643 699.776 73.9088 699.617C80.1147 699.458 86.3206 698.981 92.5264 698.264C97.4593 697.628 102.233 696.991 106.609 694.524C107.962 693.808 106.768 691.738 105.416 692.455C97.5389 696.832 86.6388 696.673 77.8074 697.071C73.4314 697.23 68.9759 697.309 64.6 697.23C62.2927 697.15 49.9605 697.707 49.4831 695.081C49.1649 693.569 46.9371 694.206 47.1758 695.718Z" fill="#E8E8E8"/>
<path d="M51.7107 723.333C55.5297 730.097 60.383 736.066 66.1911 741.239C67.305 742.274 69.0554 740.602 67.8619 739.568C62.1334 734.554 57.4392 728.745 53.7793 722.139C53.0633 720.786 50.9947 721.98 51.7107 723.333Z" fill="#E8E8E8"/>
<path d="M48.6079 704.949C56.7233 718.638 66.589 731.212 77.8869 742.513C79.0008 743.627 80.6716 741.876 79.5577 740.841C68.419 729.7 58.7124 717.285 50.6765 703.755C49.8809 702.482 47.8123 703.676 48.6079 704.949Z" fill="#E8E8E8"/>
<path d="M61.8948 699.219C70.3284 714.26 80.1146 728.506 91.1738 741.796C92.1285 742.99 93.7993 741.319 92.8446 740.125C81.9445 726.994 72.2379 712.907 63.9634 698.025C63.2474 696.672 61.1787 697.866 61.8948 699.219Z" fill="#E8E8E8"/>
<path d="M77.0913 699.776C85.2863 712.032 93.5607 724.208 101.915 736.385C102.79 737.658 104.859 736.464 103.983 735.191C95.6294 723.015 87.3549 710.838 79.1599 698.582C78.2848 697.309 76.2162 698.503 77.0913 699.776Z" fill="#E8E8E8"/>
<path d="M89.8213 699.06C93.9585 705.745 98.414 712.271 103.029 718.637C103.904 719.831 105.972 718.637 105.097 717.444C100.483 711.077 96.0271 704.551 91.8899 697.866C91.0943 696.593 89.0257 697.787 89.8213 699.06Z" fill="#E8E8E8"/>
<path d="M20.9996 618.681C21.9543 624.172 22.9091 629.743 23.9434 635.234C24.2616 636.746 24.5003 638.338 25.7733 639.293C26.6485 640.009 29.5128 639.93 30.0697 640.725C30.1493 640.248 30.2288 639.77 30.2288 639.293C29.0354 640.487 27.842 641.68 26.569 642.795C26.2507 643.113 26.1711 643.59 26.2507 643.988C26.9667 646.137 27.4441 649.32 28.8763 651.151C29.5923 652.106 30.8653 651.947 31.4222 652.504C31.8996 652.981 31.7405 652.663 31.5018 654.095C31.3427 655.289 31.3427 656.563 31.5018 657.836C31.7405 659.746 32.2974 661.576 33.0135 663.327C37.1508 673.355 45.1866 681.472 52.9041 688.953C54.018 689.988 55.6888 688.316 54.575 687.282C49.6421 682.507 44.7092 677.573 40.6515 672.002C36.6734 666.51 31.9792 659.109 34.4456 652.106C34.6048 651.708 34.4456 651.151 34.1274 650.912C32.6157 649.718 31.104 650.196 30.0697 648.286C28.0806 644.705 29.1945 643.511 31.7405 641.044C32.1383 640.725 32.2179 640.009 31.8996 639.611C31.2631 638.656 30.7858 638.338 29.7515 638.02C29.115 637.781 28.1602 638.02 27.5237 637.701C26.1711 636.985 26.1711 635.234 25.9324 633.961C24.9777 628.708 24.0229 623.376 23.1478 618.124C22.9886 616.532 20.6813 617.169 20.9996 618.681Z" fill="#E8E8E8"/>
<path d="M22.7501 618.362C53.7795 628.708 75.0227 657.677 75.6592 690.465C75.6592 691.977 78.0461 691.977 78.0461 690.465C77.4096 656.642 55.4503 626.798 23.3866 616.055C21.9545 615.577 21.318 617.885 22.7501 618.362Z" fill="#E8E8E8"/>
<path d="M70.4081 657.836C78.1257 636.428 89.5031 615.736 107.723 601.65C108.916 600.695 107.723 598.626 106.53 599.581C87.7527 614.145 76.057 635.155 68.1008 657.199C67.6234 658.632 69.9307 659.268 70.4081 657.836Z" fill="#E8E8E8"/>
<path d="M105.654 601.173C106.211 608.494 106.848 615.816 107.405 623.217C107.564 624.729 109.951 624.729 109.792 623.217C109.235 615.895 108.598 608.574 108.041 601.173C107.962 599.66 105.575 599.66 105.654 601.173Z" fill="#E8E8E8"/>
<path d="M108.439 622.421C107.404 622.66 106.37 622.899 105.415 623.217C103.904 623.615 104.54 625.923 106.052 625.525C107.086 625.286 108.121 625.048 109.075 624.729C110.587 624.331 109.95 622.103 108.439 622.421Z" fill="#E8E8E8"/>
<path d="M104.222 625.366C104.54 626.878 105.813 627.833 107.246 627.992C107.882 628.072 108.439 627.435 108.439 626.798C108.439 626.082 107.882 625.684 107.246 625.605C107.484 625.605 107.246 625.605 107.166 625.605C107.086 625.605 106.927 625.525 107.086 625.605C107.007 625.525 106.927 625.525 106.848 625.445C106.689 625.366 107.007 625.605 106.768 625.366C106.689 625.286 106.689 625.286 106.609 625.207C106.768 625.366 106.609 625.207 106.609 625.127C106.53 625.047 106.53 624.888 106.53 625.048C106.53 624.968 106.45 624.809 106.45 624.729C106.291 624.092 105.575 623.695 105.018 623.933C104.381 624.092 104.063 624.729 104.222 625.366Z" fill="#E8E8E8"/>
<path d="M106.052 627.117C106.132 631.653 105.972 636.11 105.495 640.566C105.336 641.999 105.575 645.341 104.62 646.455C104.54 646.535 103.108 646.774 102.79 647.013C101.597 647.968 103.267 649.639 104.461 648.684C104.859 648.365 105.813 648.684 106.45 647.968C107.405 647.013 107.245 644.784 107.405 643.67C108.121 638.179 108.439 632.608 108.359 627.037C108.439 625.605 106.052 625.605 106.052 627.117Z" fill="#E8E8E8"/>
<path d="M101.835 649.082C104.381 652.106 103.665 657.12 103.427 660.78C103.108 664.998 102.392 668.898 100.324 672.559C97.3798 677.97 93.2425 682.507 91.0944 688.396C90.5374 689.828 92.8447 690.465 93.4017 689.032C96.2659 681.313 102.87 675.583 104.859 667.465C106.291 661.656 107.643 652.345 103.506 647.41C102.551 646.296 100.881 647.967 101.835 649.082Z" fill="#E8E8E8"/>
<path d="M83.0586 689.51C85.2863 666.908 91.2535 644.864 100.801 624.331C101.437 622.978 99.3689 621.705 98.7324 623.137C89.0257 644.147 82.8994 666.51 80.6717 689.59C80.5125 691.102 82.8994 691.022 83.0586 689.51Z" fill="#E8E8E8"/>
<path d="M36.1166 631.653C50.0401 649.161 60.2241 669.296 66.1912 690.783C66.5891 692.295 68.8964 691.659 68.4986 690.147C62.3722 668.182 51.9495 647.808 37.7874 629.982C36.8327 628.788 35.1619 630.459 36.1166 631.653Z" fill="#E8E8E8"/>
<path d="M37.6283 661.019C44.3115 660.621 50.5174 662.213 56.1663 665.715C57.4393 666.51 58.7123 664.441 57.3597 663.645C51.3926 659.985 44.6298 658.234 37.6283 658.632C36.037 658.711 36.037 661.099 37.6283 661.019Z" fill="#E8E8E8"/>
<path d="M52.1882 650.355C51.7108 645.978 52.2677 641.76 53.9385 637.622C54.4955 636.189 52.1882 635.552 51.6312 636.985C49.8809 641.282 49.3239 645.739 49.8013 650.355C49.9604 651.867 52.3473 651.867 52.1882 650.355Z" fill="#E8E8E8"/>
<path d="M77.9664 637.144C80.592 643.59 84.411 650.435 85.3657 657.279C85.6044 658.791 87.9117 658.154 87.673 656.642C86.6387 649.718 82.8198 642.874 80.2738 636.507C79.7168 635.075 77.4095 635.712 77.9664 637.144Z" fill="#E8E8E8"/>
<path d="M92.6059 644.705C94.9132 642.078 97.141 638.975 100.085 636.985C102.551 635.314 105.256 634.2 107.166 631.892C108.121 630.698 106.45 629.027 105.495 630.22C103.426 632.688 100.403 633.722 97.9366 635.632C95.2314 637.701 93.1628 640.487 90.9351 643.033C89.9008 644.227 91.5716 645.898 92.6059 644.705Z" fill="#E8E8E8"/>
<path d="M93.4016 688.714C97.2206 687.68 101.119 687.282 105.097 687.52C106.609 687.6 106.609 685.212 105.097 685.133C100.88 684.894 96.8228 685.292 92.7651 686.406C91.3329 686.804 91.8899 689.112 93.4016 688.714Z" fill="#E8E8E8"/>
<path d="M93.0832 689.669C97.5387 690.067 101.835 689.51 106.131 688.157C107.564 687.68 106.927 685.372 105.495 685.849C101.437 687.122 97.3 687.6 93.0832 687.282C91.5715 687.202 91.5715 689.59 93.0832 689.669Z" fill="#E8E8E8"/>
<path d="M48.4487 689.271C49.483 689.271 50.4378 689.271 51.4721 689.271C52.9838 689.271 52.9838 686.884 51.4721 686.884C50.4378 686.884 49.483 686.884 48.4487 686.884C46.937 686.884 46.937 689.271 48.4487 689.271Z" fill="#E8E8E8"/>
<path d="M106.768 708.53C131.989 708.53 157.29 708.53 182.512 708.53C184.023 708.53 184.023 706.143 182.512 706.143C157.29 706.143 131.989 706.143 106.768 706.143C105.256 706.143 105.256 708.53 106.768 708.53Z" fill="#E8E8E8"/>
<path d="M533.7 692.773C548.738 692.773 563.696 692.773 578.733 692.773C580.245 692.773 580.245 690.385 578.733 690.385C563.696 690.385 548.738 690.385 533.7 690.385C532.189 690.385 532.189 692.773 533.7 692.773Z" fill="#E8E8E8"/>
<path d="M670.23 694.205C735.073 694.205 799.917 694.205 864.76 694.205C883.218 694.205 901.677 694.205 920.136 694.205C921.647 694.205 921.647 691.818 920.136 691.818C855.292 691.818 790.449 691.818 725.605 691.818C707.147 691.818 688.688 691.818 670.23 691.818C668.718 691.818 668.718 694.205 670.23 694.205Z" fill="#E8E8E8"/>
<path d="M574.198 432.933C568.151 445.428 561.627 457.684 554.705 469.701C554.386 470.338 554.625 471.372 555.421 471.452C589.553 476.625 620.105 493.576 649.543 510.686C650.896 511.482 652.089 509.413 650.737 508.617C621.06 491.427 590.349 474.396 555.978 469.144C556.216 469.701 556.455 470.338 556.694 470.895C563.695 458.878 570.14 446.622 576.187 434.127C576.903 432.774 574.914 431.501 574.198 432.933Z" fill="#E8E8E8"/>
<path d="M579.449 476.306C581.836 469.462 584.223 462.538 586.609 455.694C587.644 452.829 588.36 449.646 589.712 446.86C590.031 445.189 591.065 443.916 592.656 442.961C593.611 443.2 594.566 443.438 595.52 443.677C596.953 444.075 598.385 444.393 599.737 444.791C602.999 445.587 608.25 445.587 607.693 449.964C607.296 453.068 605.466 456.41 604.431 459.435C602.045 466.199 599.737 472.964 597.35 479.728C596.873 481.161 599.18 481.797 599.658 480.365C602.761 471.452 605.864 462.459 608.967 453.545C609.683 451.476 611.672 447.975 610.08 445.746C608.33 443.359 603.079 443.2 600.374 442.483C597.748 441.847 593.134 439.459 590.428 440.732C588.121 441.767 587.644 445.746 586.928 447.736C583.666 457.047 580.404 466.438 577.142 475.749C576.664 477.102 578.971 477.739 579.449 476.306Z" fill="#E8E8E8"/>
<path d="M610.16 484.822C615.252 474.078 620.423 463.255 625.515 452.511C628.061 447.099 630.607 441.767 633.233 436.355C634.426 433.888 635.381 430.944 636.893 428.636C638.166 426.646 638.484 426.169 640.712 427.044C641.905 427.522 643.337 428.715 644.372 429.432C645.724 430.387 647.873 431.421 648.827 432.695C650.021 434.207 649.543 435.798 648.827 437.708C647.873 440.255 646.44 442.722 645.247 445.189C642.621 450.601 639.996 456.012 637.211 461.424C631.96 471.69 626.47 481.877 620.821 491.984C620.026 493.337 622.094 494.531 622.89 493.178C629.812 480.922 636.415 468.507 642.621 455.933C645.724 449.725 649.145 443.359 651.771 436.912C653.601 432.217 649.623 430.307 646.122 427.84C643.337 425.93 638.961 421.553 635.938 425.134C634.029 427.362 632.994 431.103 631.721 433.809C630.13 437.072 628.618 440.335 627.027 443.677C620.662 457.047 614.297 470.417 608.012 483.787C607.455 484.981 609.523 486.254 610.16 484.822Z" fill="#E8E8E8"/>
<path d="M636.575 501.375C643.417 490.631 651.135 480.445 659.648 471.054C659.17 471.133 658.693 471.213 658.216 471.213C661.239 473.282 664.183 475.272 667.206 477.341C667.047 476.784 666.888 476.227 666.808 475.67C660.046 486.254 653.283 496.759 646.52 507.344C645.724 508.617 647.713 509.811 648.589 508.537C655.351 497.953 662.114 487.448 668.877 476.863C669.275 476.306 668.957 475.59 668.479 475.192C665.456 473.123 662.512 471.133 659.489 469.064C659.091 468.746 658.375 468.905 658.057 469.223C649.384 478.853 641.508 489.119 634.586 500.022C633.71 501.534 635.779 502.728 636.575 501.375Z" fill="#E8E8E8"/>
<path d="M731.493 425.691C723.537 422.667 718.524 414.709 719.956 406.193C721.388 397.519 729.902 389.799 738.654 394.972C744.7 398.553 747.803 406.671 745.496 413.276C743.109 420.359 735.312 424.577 728.072 423.463C726.56 423.224 725.924 425.532 727.435 425.771C735.948 427.044 744.939 422.349 747.803 413.913C750.668 405.477 746.053 395.29 737.778 391.868C728.072 387.889 719.24 396.245 717.569 405.557C715.819 415.425 721.627 424.497 730.777 427.999C732.289 428.556 732.925 426.248 731.493 425.691Z" fill="#E8E8E8"/>
<path d="M747.803 424.179C731.97 423.702 737.937 398.315 751.94 399.27C765.943 400.304 760.215 428.875 744.859 423.622C743.427 423.145 742.791 425.452 744.223 425.93C761.965 431.978 769.921 399.667 752.975 396.962C744.7 395.609 737.221 403.408 735.948 411.127C734.675 418.767 739.847 426.248 747.803 426.487C749.315 426.646 749.315 424.259 747.803 424.179Z" fill="#E8E8E8"/>
<path d="M735.948 352.156C734.596 350.724 733.959 348.416 734.994 346.665C736.028 344.994 738.574 344.198 740.165 345.471C741.597 346.585 741.915 348.973 740.563 350.167C738.972 351.599 736.426 350.883 734.914 349.689C733.721 348.734 732.05 350.405 733.243 351.36C735.71 353.27 739.529 354.225 742.154 351.918C744.541 349.769 744.302 345.79 741.916 343.72C739.449 341.572 735.55 342.208 733.482 344.596C731.175 347.302 731.811 351.36 734.198 353.828C735.312 354.942 736.983 353.27 735.948 352.156Z" fill="#E8E8E8"/>
<path d="M505.058 412.083C502.83 398.553 510.707 382.239 525.983 382.398C533.78 382.478 541.338 385.661 549.215 384.547C554.784 383.751 559.558 380.568 562.9 376.19C566.242 371.813 568.151 366.322 568.469 360.831C568.867 352.713 565.764 344.437 567.992 336.399C569.106 332.34 571.493 328.6 575.55 327.088C579.449 325.735 583.666 326.53 587.723 326.371C593.611 326.133 598.226 323.586 601.169 318.413C605.307 311.171 604.352 302.496 607.216 294.856C610.637 285.625 620.264 277.746 630.448 282.282C631.801 282.919 633.074 280.85 631.642 280.213C617.798 274.005 606.261 286.5 603.556 299.074C601.806 307.271 602.124 320.005 592.338 323.268C585.496 325.575 577.778 321.994 571.493 326.69C566.321 330.51 564.809 337.513 564.889 343.641C565.128 352.634 567.912 361.388 563.934 369.983C560.274 378.1 553.034 382.955 544.044 382.398C536.087 381.92 528.211 378.658 520.175 380.727C506.57 384.149 500.762 400.225 502.91 412.799C503.069 414.152 505.376 413.515 505.058 412.083Z" fill="#E8E8E8"/>
<path d="M605.625 355.34C602.681 348.655 606.739 342.288 613.183 340.139C617.878 338.547 623.049 338.468 627.107 335.285C630.289 332.817 631.324 329.714 630.926 325.735C630.528 321.994 630.528 319.05 633.472 316.503C635.938 314.354 639.2 313.558 642.383 313.399C651.135 313.081 663.149 317.537 669.514 309.022C672.458 305.043 671.582 300.109 672.935 295.652C674.765 289.445 680.732 285.625 687.097 285.943C688.609 286.022 688.609 283.635 687.097 283.555C682.244 283.317 677.549 285.147 674.208 288.649C670.071 293.026 670.628 297.96 669.355 303.451C665.933 318.492 645.008 307.908 635.143 312.603C631.483 314.354 628.539 317.458 628.221 321.596C627.823 326.451 630.051 330.43 625.118 333.772C622.492 335.523 619.469 336.08 616.445 336.797C611.433 337.99 606.5 339.502 603.954 344.357C601.885 348.177 601.885 352.554 603.636 356.454C604.193 357.966 606.182 356.692 605.625 355.34Z" fill="#E8E8E8"/>
<path d="M747.405 249.335C747.087 248.618 746.769 247.822 746.53 247.027C747.564 245.833 748.519 244.639 749.553 243.445C749.872 243.366 751.304 244.321 751.781 244.321C752.975 244.48 754.009 244.162 754.964 243.445C757.907 241.137 756.873 237.477 757.748 234.373C759.18 229.041 765.466 232.702 768.33 228.722C771.194 224.823 770.16 216.546 777.798 218.775C779.31 219.172 779.946 216.865 778.435 216.467C774.059 215.193 770.08 217.262 768.489 221.48C768.012 222.674 767.853 224.027 767.375 225.221C766.341 228.006 765.227 228.404 762.204 228.563C759.976 228.722 758.226 228.563 756.714 230.473C755.441 232.145 755.441 234.293 755.202 236.283C754.964 239.227 755.202 241.695 750.826 241.376C749.951 241.297 749.235 240.501 748.28 240.501C743.029 240.421 743.904 246.867 745.177 249.971C745.655 251.404 748.042 250.767 747.405 249.335Z" fill="#E8E8E8"/>
<path d="M762.363 255.94C761.09 254.269 758.942 249.414 762.681 248.141C764.034 247.663 765.784 248.22 767.217 248.22C768.49 248.22 769.603 248.22 770.638 247.345C773.82 244.798 771.513 240.262 773.184 237.079C775.889 231.906 781.299 235.965 785.118 233.259C787.823 231.349 788.539 227.688 789.017 224.664C789.255 223.152 786.948 222.515 786.709 224.027C786.152 227.608 785.516 231.587 781.06 231.985C778.753 232.224 777.003 231.428 774.854 232.463C771.354 234.134 770.24 237.238 770.16 240.819C770.081 243.843 770.797 245.355 765.705 245.594C765.068 245.594 764.432 245.435 763.795 245.435C761.965 245.594 760.374 246.549 759.34 248.061C757.112 251.245 758.385 254.905 760.613 257.691C761.647 258.885 763.318 257.134 762.363 255.94Z" fill="#E8E8E8"/>
<path d="M615.809 627.594C615.57 635.95 615.331 644.307 615.093 652.743C625.675 653.459 636.177 654.096 646.759 654.812C646.759 646.217 646.759 637.622 646.759 629.027C636.416 628.549 626.152 628.072 615.809 627.594Z" fill="white" stroke="#161616" stroke-width="2" stroke-miterlimit="10"/>
<path d="M629.573 720.468C631.005 729.7 631.642 737.34 631.96 742.831C632.995 761.056 632.199 765.273 630.608 768.616C626.709 776.813 619.628 780.235 620.265 781.349C620.742 782.065 624.243 781.27 639.837 773.073C638.882 754.928 638.007 736.862 637.052 718.717C634.586 719.354 632.119 719.911 629.573 720.468Z" fill="white" stroke="#161616" stroke-width="2" stroke-miterlimit="10"/>
<path d="M608.967 661.974C622.492 662.054 636.018 662.213 649.543 662.293C648.032 680.438 646.6 698.503 645.088 716.648C633.313 715.693 621.458 714.818 609.683 713.863C609.364 696.593 609.126 679.323 608.967 661.974Z" fill="white" stroke="#161616" stroke-width="2" stroke-miterlimit="10"/>
<path d="M614.456 719.831C618.753 730.257 620.185 739.25 620.662 745.298C621.378 754.211 621.856 761.055 617.559 765.592C615.968 767.342 613.343 769.014 608.251 772.436C603.716 775.46 601.567 776.574 601.726 776.892C601.965 777.37 606.341 776.415 625.436 769.65C626.709 763.204 627.743 754.928 627.505 745.218C627.186 734.873 625.516 726.039 623.686 719.433C620.662 719.593 617.559 719.672 614.456 719.831Z" fill="white" stroke="#161616" stroke-width="2" stroke-miterlimit="10"/>
<path d="M621.378 782.066C623.765 780.076 625.993 777.927 628.141 775.619C630.608 772.913 634.268 768.775 638.087 772.356C638.166 771.72 638.246 771.083 638.325 770.446C632.676 773.232 627.107 776.017 621.458 778.723C620.344 779.28 620.901 780.951 622.094 780.951C627.425 781.031 630.767 771.72 636.257 773.471C637.689 773.948 638.325 771.64 636.893 771.163C634.506 770.446 632.676 771.083 630.687 772.516C628.38 774.187 625.118 778.564 622.174 778.564C622.413 779.28 622.572 780.076 622.811 780.792C628.459 778.007 634.029 775.221 639.678 772.516C640.394 772.197 640.473 771.163 639.916 770.606C637.768 768.616 633.949 767.9 631.244 769.173C629.255 770.049 627.982 772.356 626.55 773.869C624.402 776.176 622.174 778.246 619.787 780.315C618.514 781.349 620.185 783.1 621.378 782.066Z" fill="#161616"/>
<path d="M631.165 769.65C633.551 769.73 635.859 770.208 638.086 771.163C639.439 771.799 640.712 769.73 639.28 769.093C636.654 767.9 634.029 767.263 631.165 767.183C629.653 767.263 629.653 769.65 631.165 769.65Z" fill="#161616"/>
<path d="M618.116 766.865C619.946 767.343 621.538 768.298 622.81 769.73C623.845 770.844 625.516 769.173 624.481 768.059C622.89 766.388 620.901 765.194 618.673 764.637C617.321 764.159 616.684 766.467 618.116 766.865Z" fill="#161616"/>
<path d="M605.227 776.495C607.694 774.664 610.239 772.993 612.865 771.401C614.058 770.685 615.331 769.73 616.604 769.332C618.594 768.616 619.787 769.093 621.617 769.889C621.617 769.173 621.617 768.536 621.617 767.82C619.071 768.934 616.207 768.855 613.581 769.969C611.035 771.003 608.648 773.55 606.023 774.028C606.341 774.744 606.659 775.46 606.977 776.176C611.672 773.868 616.923 773.471 621.617 771.163C622.969 770.446 621.776 768.457 620.423 769.093C615.729 771.401 610.478 771.799 605.784 774.107C604.511 774.744 605.466 776.495 606.739 776.256C609.603 775.778 611.91 773.152 614.615 772.118C617.321 771.083 620.264 771.003 622.89 769.889C623.686 769.571 623.686 768.138 622.89 767.82C619.867 766.467 618.514 765.671 615.491 767.263C611.513 769.332 607.773 771.799 604.193 774.426C602.761 775.301 603.954 777.37 605.227 776.495Z" fill="#161616"/>
<path d="M618.832 732.008C620.822 731.291 622.811 731.371 624.641 732.326C625.993 733.042 627.187 730.973 625.834 730.257C623.447 728.983 620.742 728.745 618.196 729.7C616.764 730.257 617.4 732.565 618.832 732.008Z" fill="#161616"/>
<path d="M620.821 739.966C622.492 739.807 624.083 740.205 625.356 741.319C626.55 742.274 628.221 740.603 627.027 739.648C625.277 738.215 623.129 737.419 620.821 737.578C619.31 737.658 619.31 740.046 620.821 739.966Z" fill="#161616"/>
<path d="M621.697 749.914C623.208 749.755 624.641 750.312 625.516 751.585C626.311 752.858 628.38 751.665 627.584 750.391C626.391 748.402 624.084 747.208 621.776 747.526C621.14 747.606 620.583 748.004 620.583 748.72C620.503 749.277 621.06 749.993 621.697 749.914Z" fill="#161616"/>
<path d="M631.96 731.45C633.392 730.655 635.222 730.734 636.575 731.848C637.768 732.803 639.439 731.132 638.246 730.177C636.098 728.426 633.233 728.028 630.767 729.381C629.414 730.177 630.608 732.246 631.96 731.45Z" fill="#161616"/>
<path d="M633.313 746.492C634.586 745.935 636.018 746.173 637.052 747.128C638.166 748.163 639.917 746.492 638.723 745.457C636.893 743.786 634.347 743.388 632.04 744.502C630.687 745.059 631.96 747.128 633.313 746.492Z" fill="#161616"/>
<path d="M633.631 759.225C634.904 758.429 636.495 758.429 637.689 759.384C638.882 760.339 640.553 758.668 639.359 757.713C637.37 756.042 634.586 755.803 632.437 757.235C631.164 758.031 632.358 760.1 633.631 759.225Z" fill="#161616"/>
<path d="M651.453 662.213C649.862 680.517 648.27 698.821 646.679 717.125" stroke="#161616" stroke-width="6" stroke-miterlimit="10"/>
<path d="M609.444 714.579C622.731 715.534 636.018 716.409 649.305 717.364" stroke="#161616" stroke-width="6" stroke-miterlimit="10"/>
<path d="M649.384 628.311C649.066 637.383 648.668 646.376 648.35 655.448" stroke="#161616" stroke-width="6" stroke-miterlimit="10"/>
<path d="M651.055 672.957C658.454 671.604 666.331 677.413 666.888 685.053C667.684 694.603 656.784 696.275 649.623 695.24C648.111 695.001 647.475 697.309 648.986 697.548C657.738 698.821 670.07 696.354 669.275 685.053C668.638 675.742 659.33 668.978 650.419 670.649C648.907 670.888 649.543 673.195 651.055 672.957Z" fill="#161616"/>
<path d="M649.305 699.458C652.408 700.095 654.874 702.323 655.749 705.347C656.147 706.859 658.454 706.222 658.057 704.71C657.022 700.89 653.919 697.866 650.021 697.15C648.43 696.911 647.793 699.14 649.305 699.458Z" fill="#161616"/>
<path d="M648.111 698.662C650.021 701.448 650.896 704.551 650.578 707.973C650.498 709.486 652.885 709.486 652.965 707.973C653.203 704.233 652.249 700.572 650.1 697.468C649.305 696.195 647.236 697.389 648.111 698.662Z" fill="#161616"/>
<path d="M608.887 671.843C603.636 668.5 594.009 678.13 592.815 682.825C590.429 692.375 602.681 691.261 607.773 694.444C609.046 695.24 610.24 693.171 608.967 692.375C605.307 690.067 599.896 690.943 596.714 688.078C592.815 684.576 596.396 680.358 599.101 677.891C600.533 676.618 605.386 672.4 607.694 673.832C608.967 674.787 610.24 672.718 608.887 671.843Z" fill="#161616"/>
<path d="M607.614 693.33C605.545 694.126 603.636 695.32 602.045 696.991C600.851 698.264 599.339 700.254 600.533 702.005C601.408 703.278 603.477 702.084 602.602 700.811C602.045 700.015 604.113 698.264 604.67 697.787C605.704 696.832 606.898 696.115 608.25 695.638C609.683 695.081 609.126 692.773 607.614 693.33Z" fill="#161616"/>
<path d="M606.659 695.001C605.148 697.389 604.67 700.095 605.227 702.801C605.545 704.313 607.853 703.676 607.534 702.164C607.057 700.015 607.534 698.026 608.728 696.195C609.603 694.922 607.534 693.728 606.659 695.001Z" fill="#161616"/>
<path d="M614.218 670.33C613.82 676.14 613.9 682.029 614.297 687.839C614.457 689.351 616.843 689.351 616.684 687.839C616.207 682.029 616.207 676.14 616.605 670.33C616.764 668.818 614.377 668.818 614.218 670.33Z" fill="#161616"/>
<path d="M615.968 670.967C624.402 671.445 632.756 671.763 641.189 671.922C640.792 671.524 640.394 671.126 639.996 670.728C639.757 676.697 639.519 682.745 639.2 688.714C639.121 690.226 641.508 690.226 641.587 688.714C641.826 682.745 642.065 676.697 642.383 670.728C642.383 670.092 641.826 669.535 641.189 669.535C632.756 669.375 624.402 669.057 615.968 668.58C614.457 668.5 614.457 670.887 615.968 670.967Z" fill="#161616"/>
<path d="M615.013 688.873C618.514 689.828 622.413 689.59 625.913 689.828C630.21 690.067 634.586 690.385 638.882 690.624C640.394 690.704 640.394 688.316 638.882 688.237C635.063 687.998 631.244 687.759 627.425 687.52C623.606 687.282 619.31 687.52 615.57 686.565C614.218 686.168 613.581 688.475 615.013 688.873Z" fill="#161616"/>
<path d="M617.719 701.209C619.151 704.313 622.254 701.607 624.64 702.721C625.754 703.198 625.516 703.915 627.027 703.994C628.778 704.074 633.074 700.572 633.949 703.835C634.188 704.711 635.302 704.949 635.938 704.392C636.734 704.153 637.609 703.915 638.405 703.756C639.359 704.949 641.11 703.198 640.076 702.084C638.246 699.936 635.938 701.129 634.188 702.721C634.824 702.88 635.54 703.039 636.177 703.278C635.461 700.493 632.517 698.662 629.732 699.936C628.38 700.572 628.221 701.766 626.152 700.97C625.754 700.811 625.595 700.174 625.197 700.015C624.322 699.697 619.708 700.174 619.708 700.095C619.151 698.583 617.082 699.776 617.719 701.209Z" fill="#161616"/>
<path d="M621.935 638.577C622.094 637.701 623.129 637.463 623.845 637.781C624.879 638.179 625.436 639.373 625.913 640.248C626.55 641.601 628.618 640.407 627.982 639.054C627.107 637.303 625.754 635.473 623.606 635.234C621.856 635.075 620.026 636.11 619.708 637.86C619.31 639.452 621.617 640.089 621.935 638.577Z" fill="#161616"/>
<path d="M636.575 639.691C636.734 638.895 637.45 638.418 638.246 638.736C639.2 639.054 639.598 640.248 639.757 641.123C639.996 642.635 642.303 641.999 642.065 640.487C641.746 638.577 640.473 636.587 638.405 636.269C636.575 636.03 634.586 637.144 634.268 639.054C634.029 640.566 636.336 641.203 636.575 639.691Z" fill="#161616"/>
<path d="M623.129 643.591C625.834 648.366 632.278 649.082 635.779 644.784C636.734 643.591 635.063 641.919 634.108 643.113C631.562 646.217 627.186 645.978 625.197 642.397C624.481 641.044 622.413 642.238 623.129 643.591Z" fill="#161616"/>
<path d="M539.668 211.135C529.643 207.076 523.596 197.367 519.936 187.658C516.038 177.55 514.367 166.568 514.924 155.745C515.879 135.769 524.392 115.555 540.145 102.822C555.023 90.725 577.062 87.3029 593.611 98.2854C610.876 109.745 613.979 133.382 614.138 152.402C614.297 173.571 609.365 195.775 593.691 210.975C592.577 212.01 594.248 213.761 595.362 212.647C610.24 198.163 615.889 177.471 616.446 157.257C617.003 137.44 614.616 112.372 598.305 98.7629C583.029 86.0296 560.354 86.6663 544.044 97.0121C525.983 108.472 515.322 129.243 513.014 150.174C511.582 163.146 513.173 176.595 517.947 188.851C522.005 199.197 528.449 209.065 539.111 213.363C540.463 214 541.02 211.692 539.668 211.135Z" fill="#161616"/>
<path d="M538.554 212.647C535.849 216.467 536.406 222.117 540.384 224.982C543.407 227.131 547.863 227.449 551.443 227.927C555.739 228.563 560.115 228.802 564.491 228.802C572.288 228.722 581.199 228.165 588.44 225.141C593.691 222.913 597.669 217.66 594.884 212.01C594.248 210.657 592.179 211.851 592.815 213.204C598.783 225.38 570.538 226.415 564.412 226.415C558.763 226.415 553.114 225.937 547.624 224.902C544.998 224.425 542.055 223.947 540.384 221.64C538.713 219.252 539.031 216.148 540.622 213.92C541.498 212.567 539.429 211.373 538.554 212.647Z" fill="#161616"/>
<path d="M541.1 225.539C541.1 229.518 541.179 233.577 541.657 237.556C541.895 239.387 542.293 240.978 543.805 242.093C545.953 243.684 549.533 243.605 552.079 243.843C556.376 244.162 560.752 244.162 565.048 244.003C569.106 243.843 573.164 243.525 577.221 243.127C579.608 242.888 582.313 242.968 584.143 241.138C588.201 237.158 588.28 229.598 587.246 224.584C586.928 223.072 584.621 223.709 584.939 225.221C585.496 227.927 585.655 230.633 585.098 233.418C584.302 237.318 583.188 239.864 578.812 240.66C573.72 241.615 567.992 241.615 562.82 241.695C557.728 241.774 552 242.013 546.987 240.819C542.373 239.705 543.566 229.359 543.566 225.539C543.487 224.027 541.1 224.027 541.1 225.539Z" fill="#161616"/>
<path d="M541.896 139.828C551.443 145.797 558.683 154.551 562.741 165.056C563.298 166.488 565.605 165.852 565.048 164.419C560.752 153.278 553.193 144.046 543.169 137.759C541.816 136.883 540.623 138.952 541.896 139.828Z" fill="#161616"/>
<path d="M564.65 165.056C569.344 155.187 576.187 146.752 584.939 140.226C586.132 139.35 584.939 137.202 583.745 138.157C574.675 144.921 567.514 153.675 562.582 163.862C561.945 165.215 564.014 166.409 564.65 165.056Z" fill="#161616"/>
<path d="M562.741 162.27C563.934 178.665 564.491 195.059 564.252 211.453C564.252 212.965 566.639 212.965 566.639 211.453C566.878 195.059 566.321 178.585 565.128 162.27C564.969 160.679 562.582 160.679 562.741 162.27Z" fill="#161616"/>
<path d="M469.573 202.38C480.155 198.799 490.657 195.218 501.239 191.637C502.671 191.159 502.035 188.851 500.603 189.329C490.021 192.91 479.518 196.491 468.937 200.072C467.425 200.55 468.061 202.858 469.573 202.38Z" fill="#161616"/>
<path d="M481.667 186.464C485.327 185.429 488.987 184.315 492.646 183.28C494.079 182.882 493.522 180.575 492.01 180.972C488.35 182.007 484.69 183.121 481.03 184.156C479.598 184.633 480.155 186.941 481.667 186.464Z" fill="#161616"/>
<path d="M455.172 159.963C469.175 159.803 483.099 160.201 497.022 161.077C498.534 161.156 498.534 158.769 497.022 158.689C483.099 157.814 469.096 157.495 455.172 157.575C453.661 157.575 453.661 159.963 455.172 159.963Z" fill="#161616"/>
<path d="M484.77 149.139C488.111 150.015 491.532 150.412 494.954 150.492C496.465 150.492 496.465 148.105 494.954 148.105C491.692 148.025 488.509 147.627 485.406 146.831C483.894 146.433 483.258 148.741 484.77 149.139Z" fill="#161616"/>
<path d="M479.598 75.0471C492.089 85.7908 503.467 97.5692 513.73 110.462C514.685 111.655 516.356 109.984 515.401 108.79C505.137 95.8979 493.76 84.04 481.269 73.3758C480.155 72.3413 478.404 74.0125 479.598 75.0471Z" fill="#161616"/>
<path d="M514.526 97.6487C516.674 99.877 518.743 102.105 520.891 104.413C521.925 105.527 523.596 103.856 522.562 102.742C520.414 100.514 518.345 98.2853 516.197 95.9774C515.163 94.8633 513.492 96.5345 514.526 97.6487Z" fill="#161616"/>
<path d="M466.073 102.105C469.971 104.413 473.949 106.562 478.007 108.552C479.359 109.268 480.553 107.199 479.2 106.482C475.143 104.413 471.165 102.265 467.266 100.036C465.913 99.2403 464.72 101.31 466.073 102.105Z" fill="#161616"/>
<path d="M604.511 83.9604C616.287 72.182 628.062 60.4037 639.837 48.6254C640.951 47.5112 639.201 45.8399 638.166 46.9541C626.391 58.7324 614.616 70.5108 602.84 82.2891C601.727 83.4033 603.397 85.0745 604.511 83.9604Z" fill="#161616"/>
<path d="M616.366 89.4517C619.389 87.2233 622.413 85.0746 625.436 82.8462C626.63 81.9708 625.516 79.9016 624.243 80.7771C621.219 83.0054 618.196 85.1542 615.173 87.3825C613.9 88.2579 615.093 90.3271 616.366 89.4517Z" fill="#161616"/>
<path d="M567.753 68.362C570.14 56.8225 571.97 45.2033 573.084 33.5045C573.243 31.9925 570.856 31.9925 570.697 33.5045C569.583 44.9645 567.833 56.4245 565.446 67.7254C565.128 69.2375 567.435 69.8741 567.753 68.362Z" fill="#161616"/>
<path d="M634.665 141.579C656.306 139.589 677.868 137.6 699.509 135.61C701.02 135.451 701.02 133.063 699.509 133.222C677.868 135.212 656.306 137.202 634.665 139.191C633.154 139.271 633.074 141.658 634.665 141.579Z" fill="#161616"/>
<path d="M543.725 215.512C557.172 218.456 570.856 218.377 584.223 215.352C585.734 215.034 585.098 212.726 583.586 213.045C570.618 215.989 557.331 216.069 544.362 213.204C542.85 212.885 542.214 215.193 543.725 215.512Z" fill="#161616"/>
<path d="M545.714 235.726C555.978 237.079 566.241 237.397 576.585 236.681C578.096 236.601 578.096 234.214 576.585 234.293C566.241 235.01 555.978 234.691 545.714 233.338C544.203 233.179 544.203 235.567 545.714 235.726Z" fill="#161616"/>
<path d="M619.628 207.474C635.779 218.854 652.249 229.837 668.957 240.421C670.23 241.217 671.423 239.148 670.15 238.352C653.442 227.767 636.973 216.785 620.821 205.405C619.548 204.529 618.355 206.598 619.628 207.474Z" fill="#161616"/>
<path d="M416.346 767.263C401.229 785.806 386.192 804.269 371.075 822.812C388.817 885.205 398.842 901.6 404.809 900.724C409.106 900.088 411.174 890.776 413.482 880.351C419.21 854.327 415.789 831.964 412.288 818.037C421.836 807.373 431.304 796.629 440.851 785.965C432.656 779.758 424.541 773.55 416.346 767.263Z" fill="#161616" stroke="#161616" stroke-width="2" stroke-miterlimit="10"/>
<path d="M360.572 671.763C370.04 679.085 379.111 676.458 397.887 679.642C413.879 682.348 431.86 688.316 450.955 700.254C430.587 724.129 410.219 749.357 390.011 775.938C385.157 782.384 380.304 788.83 375.61 795.276C383.407 797.107 392.795 799.972 402.979 804.588C412.925 809.044 421.04 814.058 427.485 818.594C457.798 792.173 484.849 766.626 508.957 742.513C520.095 731.371 535.849 714.34 538.315 690.226C538.474 688.873 538.474 687.68 538.474 686.486C537.917 646.455 487.554 617.487 456.923 606.823C423.427 595.204 365.824 588.917 349.752 616.691C340.284 633.085 345.853 660.383 360.572 671.763Z" fill="#4C4C4C"/>
<path opacity="0.29" d="M419.369 631.733C418.812 639.293 417.46 648.286 414.675 658.234C412.686 665.317 410.299 671.604 407.912 676.936C405.287 677.97 402.741 679.005 400.115 680.04C417.221 686.804 434.406 693.569 451.512 700.333C438.782 714.897 425.973 730.177 413.084 746.094C399.797 762.488 387.146 778.564 375.132 794.401C383.646 797.186 392.079 799.972 400.592 802.678C431.065 769.093 461.537 735.43 492.01 701.845C495.192 692.693 495.033 685.531 494.078 680.517C489.702 656.005 459.707 636.03 419.369 631.733Z" fill="#282828"/>
<path opacity="0.24" d="M451.353 700.174C454.138 704.392 456.843 708.69 459.628 712.908C435.918 741.478 412.209 769.969 388.499 798.539C384.282 797.425 379.986 796.231 375.769 795.117C390.965 774.266 407.355 752.858 425.098 731.291C433.929 720.548 442.681 710.202 451.353 700.174Z" fill="#111111"/>
<path d="M372.189 737.021C395.66 741.319 419.21 745.537 442.681 749.834C469.812 809.044 472.835 828.144 467.743 831.407C464.083 833.715 456.445 827.985 447.932 821.539C426.609 805.383 414.755 786.124 408.31 773.152C394.148 771.242 379.986 769.253 365.824 767.343C367.892 757.235 370.041 747.128 372.189 737.021Z" fill="#161616" stroke="#161616" stroke-width="2" stroke-miterlimit="10"/>
<path d="M323.815 605.152C281.01 617.726 254.914 643.829 238.126 661.019C215.451 684.337 187.604 712.908 195.64 733.997C199.777 744.741 212.348 751.346 270.906 761.533C315.142 769.253 353.492 773.391 383.407 775.699C387.146 762.011 390.886 748.402 394.546 734.713C364.471 725.004 334.476 715.375 304.401 705.665C322.86 701.766 342.273 697.15 362.482 691.5C377.838 687.202 392.477 682.745 406.401 678.05C419.29 652.026 422.074 623.933 408.628 608.017C389.852 585.733 347.763 598.069 323.815 605.152Z" fill="#4C4C4C"/>
<path opacity="0.29" d="M419.051 632.688C418.653 640.566 417.301 650.673 413.641 661.815C411.413 668.58 408.867 674.469 406.321 679.323C404.173 679.482 402.025 679.721 399.876 679.88C381.736 685.849 362.402 691.5 341.955 696.752C328.748 700.174 315.858 703.119 303.367 705.825C333.521 715.295 363.675 724.686 393.83 734.156C393.193 737.419 392.398 740.841 391.443 744.422C390.329 748.561 389.056 752.381 387.862 755.882C346.251 745.616 304.64 735.35 263.029 725.084C261.119 722.776 254.834 714.42 255.789 703.357C256.823 691.34 268.28 682.825 282.92 675.026C325.247 652.583 396.217 637.383 419.051 632.688Z" fill="#282828"/>
<path opacity="0.24" d="M281.965 707.496C289.523 706.939 297.161 706.382 304.72 705.745C334.396 715.613 364.073 725.561 393.75 735.43C392.477 740.125 391.204 744.9 389.931 749.595C353.969 735.509 317.927 721.503 281.965 707.496Z" fill="#111111"/>
<path d="M312.596 424.816C324.371 417.892 344.819 408.024 372.029 405.159C413.72 400.782 445.704 415.743 458.355 422.508C456.047 453.784 452.467 478.773 449.603 495.963C446.182 516.496 443.397 527.876 442.124 546.738C440.533 570.374 442.522 589.792 444.352 602.525C430.508 606.823 409.583 611.518 383.805 610.961C358.981 610.404 338.931 604.993 325.485 600.297C329.066 571.806 327.872 549.205 326.122 533.845C324.133 516.735 321.428 508.378 318.166 487.687C313.949 460.947 312.835 439.061 312.596 424.816Z" fill="white" stroke="#161616" stroke-width="2" stroke-miterlimit="10"/>
<path opacity="0.14" d="M398.683 414.629C400.354 420.678 402.263 429.034 403.536 439.061C404.411 445.826 407.992 476.466 396.853 516.894C390.011 541.803 382.77 568.145 359.061 589.792C351.423 596.795 344.024 601.491 338.613 604.436C350.627 607.539 366.301 610.484 384.839 610.643C409.106 610.882 429.155 606.505 443.079 602.207C442.283 596.238 441.249 587.245 440.851 576.422C440.533 566.952 440.533 551.831 447.057 509.254C452.228 475.749 455.888 461.345 457.718 431.023C457.957 427.522 458.037 424.577 458.196 422.588C452.388 419.166 444.829 415.425 435.52 412.401C426.928 409.616 419.21 408.183 412.845 407.546C408.23 409.854 403.457 412.242 398.683 414.629Z" fill="#6D6C6C"/>
<path opacity="0.17" d="M455.888 435.56C451.433 460.787 445.545 481.161 440.931 495.327C427.405 536.71 417.937 564.564 392.397 584.938C376.564 597.591 360.095 602.923 349.513 605.47C360.254 608.494 375.451 611.439 393.83 611.041C414.993 610.563 432.099 605.788 443.317 601.73C441.806 592.02 440.055 577.457 440.533 559.71C441.09 536.71 444.829 522.862 448.966 497.635C451.274 482.832 454.217 461.663 455.888 435.56Z" fill="#6D6C6C"/>
<path d="M312.119 424.418C301.776 431.58 288.489 442.881 276.873 459.673C250.697 497.714 251.413 538.063 252.447 552.945C257.221 565.758 265.416 582.55 279.737 599.024C288.091 608.653 300.344 622.501 321.269 631.414C328.27 634.438 334.396 636.11 338.852 637.065C342.671 633.642 346.41 630.22 350.229 626.798C337.977 612.473 325.645 597.432 313.312 581.913C303.844 570.055 294.774 558.277 286.022 546.658C286.341 536.869 288.409 519.122 299.071 500.579C305.117 490.074 312.199 482.434 317.847 477.261C315.938 459.673 314.028 442.085 312.119 424.418Z" fill="white" stroke="#161616" stroke-width="2" stroke-miterlimit="10"/>
<path opacity="0.13" d="M313.631 442.165C290.717 468.03 279.817 492.541 274.406 507.98C264.939 534.72 266.928 548.727 268.36 555.412C269.553 560.665 272.179 569.657 281.806 583.346C290.16 595.204 307.743 616.452 341.239 633.961C344.183 631.096 347.127 628.31 350.07 625.445C340.602 614.781 331.055 603.56 321.428 591.861C308.777 576.502 297.002 561.381 286.102 546.578C286.42 538.54 287.773 527.319 292.467 514.745C299.548 495.884 310.687 483.469 317.609 476.863C316.177 465.324 314.904 453.784 313.631 442.165Z" fill="#6D6C6C"/>
<path opacity="0.16" d="M286.022 547.613C287.455 556.924 290.398 568.782 296.604 581.595C310.289 609.449 331.691 624.809 342.591 631.494C344.74 629.584 346.808 627.753 348.956 625.843C327.952 599.74 307.027 573.637 286.022 547.613Z" fill="#6D6C6C"/>
<path d="M459.548 422.985C471.164 430.068 486.122 441.13 499.091 457.604C528.529 494.929 527.654 534.561 526.54 549.205C521.129 561.779 511.98 578.252 495.908 594.487C486.52 603.878 472.755 617.487 449.284 626.321C441.408 629.265 434.486 630.937 429.473 631.892C425.257 628.549 420.96 625.207 416.743 621.864C430.428 607.778 444.352 593.055 458.195 577.775C468.777 566.076 478.961 554.537 488.827 543.156C488.429 533.606 486.201 516.177 474.188 497.873C467.345 487.527 459.468 480.047 453.103 474.953C455.331 457.604 457.479 440.335 459.548 422.985Z" fill="white" stroke="#161616" stroke-width="2" stroke-miterlimit="10"/>
<path opacity="0.16" d="M458.991 442.324C469.096 452.909 482.86 469.86 493.601 493.496C498.693 504.717 506.967 522.942 507.126 540.132C507.683 592.418 433.69 628.39 429.394 630.459C425.177 627.753 421.04 625.127 416.823 622.421C440.771 596.159 464.64 569.896 488.588 543.634C488.111 535.039 486.122 519.042 476.574 502.012C468.698 488.005 458.912 478.932 452.467 473.919C454.695 463.414 456.843 452.909 458.991 442.324Z" fill="#6D6C6C"/>
<path opacity="0.12" d="M489.384 543.872C488.191 550.796 486.202 558.357 483.099 566.156C469.096 601.491 440.771 620.83 426.45 629.106C423.029 626.878 419.687 624.65 416.266 622.421C440.612 596.238 464.958 570.055 489.384 543.872Z" fill="#6D6C6C"/>
<path d="M477.848 549.762H282.203V673.673H477.848V549.762Z" fill="white" stroke="#161616" stroke-width="2" stroke-miterlimit="10"/>
<path d="M377.201 623.535C366.858 624.809 361.845 612.235 364.551 603.878C367.176 595.602 376.962 591.702 384.919 594.567C392.795 597.432 396.614 607.062 393.83 614.781C390.727 623.376 379.906 626.878 371.95 623.058C370.597 622.421 369.324 624.49 370.756 625.127C377.837 628.549 386.51 627.276 392.159 621.705C397.649 616.214 398.444 607.539 395.023 600.775C387.226 585.335 363.118 590.27 361.448 607.221C360.572 616.293 367.097 627.196 377.201 626.003C378.713 625.764 378.713 623.376 377.201 623.535Z" fill="#161616"/>
<path opacity="0.14" d="M355.64 549.443C382.134 558.675 400.195 582.311 400.751 607.698C401.468 639.532 374.735 669.455 338.295 672.479C384.68 672.877 431.065 673.275 477.529 673.673C477.37 632.13 477.291 590.588 477.131 549.125C436.634 549.125 396.137 549.284 355.64 549.443Z" fill="#6D6C6C"/>
<path opacity="0.26" d="M477.529 549.045C476.813 574.353 471.801 594.09 467.584 607.062C461.378 625.923 456.923 639.691 444.113 651.867C426.689 668.579 404.968 671.683 395.421 672.479C422.552 672.718 449.683 672.957 476.813 673.275C476.893 649.639 477.052 626.002 477.211 602.287C477.211 584.54 477.37 566.792 477.529 549.045Z" fill="#6D6C6C"/>
<path d="M374.257 360.592C369.881 365.924 374.098 372.45 373.302 389.879C372.905 398.553 371.473 405.557 370.359 410.252C374.098 412.003 380.702 414.47 389.215 414.709C399.717 414.947 407.673 411.685 411.572 409.775C409.822 406.273 407.514 400.861 406.082 393.858C402.502 376.031 408.867 367.675 403.616 361.07C397.489 353.43 380.145 353.35 374.257 360.592Z" fill="white" stroke="#161616" stroke-width="2" stroke-miterlimit="10"/>
<path d="M346.49 284.033C341.477 296.925 343.387 308.545 344.501 313.558C344.023 313.638 334.714 315.627 332.168 322.79C329.622 330.032 334.874 340.298 345.853 343.641C349.831 353.35 359.458 372.132 379.747 382.398C383.168 384.069 386.43 385.422 389.692 386.377C392.636 385.263 396.614 383.512 401.149 380.886C415.311 372.689 423.188 362.502 425.018 360.035C428.36 355.578 432.895 348.416 436.077 338.547C437.827 338.866 440.93 339.025 443.954 337.513C450.796 334.011 454.217 323.108 449.444 316.025C445.465 310.136 437.748 309.897 436.793 309.897C437.827 305.759 441.01 290.877 432.974 276.154C423.745 259.203 403.934 250.29 385.316 252.836C357.788 256.417 346.967 282.76 346.49 284.033Z" fill="white" stroke="#161616" stroke-width="2" stroke-miterlimit="10"/>
<path d="M373.223 381.682C378.076 384.547 383.407 389.003 389.374 388.526C394.307 388.128 399.797 385.263 403.536 382.239C404.729 381.284 403.059 379.612 401.865 380.567C398.364 383.353 392.716 386.297 388.101 386.218C383.248 386.138 378.315 382.08 374.337 379.612C373.143 378.817 371.95 380.886 373.223 381.682Z" fill="#161616"/>
<path d="M372.905 382.716C377.44 386.616 382.611 390.993 388.976 390.675C395.182 390.356 400.99 386.218 405.048 381.761C406.082 380.647 404.411 378.976 403.377 380.09C399.876 383.91 394.943 387.65 389.533 388.207C383.566 388.765 378.792 384.706 374.575 381.045C373.462 380.01 371.791 381.682 372.905 382.716Z" fill="#161616"/>
<path d="M375.928 383.194C375.928 383.114 375.928 383.114 375.928 383.194C375.451 382.477 374.575 382.318 374.018 382.875C374.018 382.875 374.018 382.875 373.939 382.955C373.461 383.353 373.461 384.228 373.939 384.626C382.691 392.982 398.762 395.688 405.048 382.875C405.684 381.522 403.695 380.249 402.979 381.682C397.41 393.142 383.327 390.356 375.689 382.955C375.689 383.512 375.689 384.069 375.689 384.626C375.689 384.626 375.689 384.626 375.769 384.547C375.132 384.467 374.496 384.387 373.859 384.308V384.387C374.655 385.661 376.724 384.467 375.928 383.194Z" fill="#161616"/>
<path d="M385.475 309.579C384.441 322.472 384.998 335.285 387.067 348.018C387.146 348.655 387.942 349.052 388.499 348.814C391.602 347.779 393.83 345.949 395.5 343.163C396.296 341.81 394.227 340.617 393.432 341.97C392.079 344.277 390.408 345.63 387.862 346.506C388.34 346.745 388.817 347.063 389.294 347.302C387.226 334.807 386.749 322.153 387.783 309.5C388.022 307.987 385.635 307.987 385.475 309.579Z" fill="#161616"/>
<path d="M371.313 322.233C371.472 322.949 372.666 327.406 371.313 328.122C369.961 328.838 366.142 325.973 364.948 322.233C363.994 319.05 364.789 315.07 366.301 314.752C367.892 314.354 370.359 318.731 371.313 322.233Z" fill="#161616" stroke="#161616" stroke-miterlimit="10"/>
<path d="M412.367 322.233C412.527 322.949 413.72 327.406 412.367 328.122C411.015 328.838 407.196 325.973 406.002 322.233C405.048 319.05 405.843 315.07 407.355 314.752C408.946 314.354 411.413 318.731 412.367 322.233Z" fill="#161616" stroke="#161616" stroke-miterlimit="10"/>
<path d="M382.611 358.523C392.318 362.661 401.149 356.852 408.31 350.565C409.503 349.53 407.753 347.859 406.639 348.893C400.433 354.305 392.477 360.115 383.884 356.454C382.373 355.897 381.179 357.966 382.611 358.523Z" fill="#161616"/>
<path d="M410.617 334.887C412.129 334.887 412.129 332.499 410.617 332.499C409.105 332.499 409.105 334.887 410.617 334.887Z" fill="#161616"/>
<path d="M419.449 330.43C419.528 330.35 419.608 330.271 419.687 330.191C420.165 329.714 420.165 328.997 419.687 328.52C419.21 328.042 418.494 328.042 418.016 328.52C417.937 328.599 417.857 328.679 417.778 328.759C417.3 329.236 417.3 329.952 417.778 330.43C418.255 330.907 418.971 330.907 419.449 330.43Z" fill="#161616"/>
<path d="M416.823 336.24C416.903 336.24 416.982 336.24 417.062 336.24C417.698 336.24 418.255 335.682 418.255 335.046C418.255 334.409 417.698 333.852 417.062 333.852C416.982 333.852 416.903 333.852 416.823 333.852C416.187 333.852 415.63 334.409 415.63 335.046C415.63 335.682 416.107 336.24 416.823 336.24Z" fill="#161616"/>
<path d="M361.925 307.987C364.948 305.441 369.404 305.361 372.427 307.828C373.621 308.783 375.292 307.112 374.098 306.157C369.961 302.815 364.232 302.814 360.175 306.316C359.061 307.271 360.811 308.942 361.925 307.987Z" fill="#161616"/>
<path d="M400.752 307.112C404.173 304.088 409.026 303.531 413.084 305.68C414.436 306.396 415.63 304.327 414.277 303.61C409.265 300.904 403.298 301.621 399.081 305.441C397.887 306.475 399.558 308.147 400.752 307.112Z" fill="#161616"/>
<path d="M362.562 334.648C364.073 334.648 364.073 332.26 362.562 332.26C361.05 332.26 361.05 334.648 362.562 334.648Z" fill="#161616"/>
<path d="M370.995 333.534C372.507 333.534 372.507 331.146 370.995 331.146C369.483 331.146 369.483 333.534 370.995 333.534Z" fill="#161616"/>
<path d="M366.778 335.364C366.699 335.444 366.619 335.523 366.54 335.603C366.062 336.08 366.062 336.797 366.54 337.274C367.017 337.752 367.733 337.752 368.21 337.274C368.29 337.194 368.37 337.115 368.449 337.035C368.927 336.558 368.927 335.842 368.449 335.364C367.972 334.887 367.256 334.887 366.778 335.364Z" fill="#161616"/>
<path d="M359.458 258.168C354.685 261.113 344.262 267.559 337.181 280.77C330.1 293.901 330.18 306.316 330.498 311.648C318.882 332.579 313.63 351.042 311.084 363.616C306.947 383.592 309.175 390.913 312.039 395.768C319.041 407.705 333.123 410.65 336.544 411.366C354.128 415.107 368.131 406.114 371.313 404.045C372.188 401.418 373.064 398.155 373.541 394.495C374.416 388.207 373.939 382.796 373.223 378.896C369.245 375.633 364.63 371.256 360.175 365.526C353.412 356.772 349.593 348.177 347.445 341.97C340.443 341.253 335.192 336.478 334.715 331.146C334.237 326.132 337.738 319.686 342.353 319.686C345.774 319.686 348.24 323.188 348.718 323.825C351.343 322.312 355.003 319.686 358.265 315.548C362.959 309.579 363.755 304.247 365.903 298.676C367.972 293.265 371.95 285.784 380.543 277.985C388.817 280.929 395.421 283.794 399.956 285.943C414.516 292.707 422.79 296.687 429.235 305.361C432.815 310.136 434.645 314.832 435.6 317.776C442.999 312.126 446.022 313.638 446.659 313.956C451.353 316.582 451.194 330.987 443.874 334.966C441.09 336.478 437.907 336.08 435.918 335.603C433.611 343.641 428.519 356.772 416.823 368.391C412.924 372.291 408.946 375.315 405.366 377.623C405.048 380.567 404.889 384.626 405.684 389.401C406.4 393.778 407.673 397.36 408.867 399.906C428.2 412.64 452.228 410.332 465.277 396.643C476.893 384.387 476.893 365.845 472.517 353.191C468.539 341.651 460.821 334.727 457.002 331.703C458.036 327.247 463.765 300.825 447.136 276.552C442.84 270.265 430.826 255.065 409.185 249.812C386.271 244.241 367.415 253.314 359.458 258.168Z" fill="#191919"/>
<path opacity="0.17" d="M409.901 290.877C418.892 302.178 421.279 312.603 422.074 318.015C425.336 340.776 412.129 359.239 405.446 368.71C399.956 376.429 394.307 381.92 390.249 385.502C393.75 394.892 397.171 404.204 400.672 413.595C404.252 412.401 407.833 411.207 411.413 410.013C409.742 407.069 407.992 403.408 406.639 398.951C404.173 390.993 404.014 383.99 404.252 379.215C408.628 376.111 413.72 371.893 418.653 366.322C428.519 355.18 433.452 343.72 435.998 336.001C437.589 336.319 441.01 336.717 444.272 334.887C451.115 330.987 450.001 321.278 449.921 320.641C449.682 318.572 449.205 315.23 446.818 313.877C444.034 312.365 439.419 313.797 435.759 318.095C434.645 314.195 431.463 305.202 422.87 298.04C418.096 294.06 413.243 291.991 409.901 290.877Z" fill="#6D6C6C"/>
<path opacity="0.19" d="M386.589 310.295C386.112 310.216 384.521 317.14 379.667 347.699C382.452 347.699 385.237 347.699 388.022 347.699C387.465 343.641 386.828 337.752 386.51 330.589C386.112 318.333 387.067 310.375 386.589 310.295Z" fill="#6D6C6C"/>
<path opacity="0.54" d="M456.525 332.499C455.172 333.295 460.264 340.139 459.548 350.326C459.31 353.509 458.832 360.751 453.104 365.606C452.706 365.924 444.193 372.927 435.759 368.471C430.747 365.844 427.723 360.274 427.882 354.225C425.495 358.682 421.597 364.571 415.471 370.301C411.652 373.882 407.912 376.509 404.65 378.498C404.411 382 404.411 386.775 405.684 392.187C406.4 395.131 407.276 397.678 408.151 399.747C410.617 401.339 414.277 403.487 419.051 405.159C422.074 406.193 438.703 412.003 454.934 403.965C457.798 402.532 464.163 399.269 468.777 392.266C469.334 391.391 471.403 388.287 472.915 383.034C478.325 365.049 470.369 348.814 469.653 347.461C465.277 338.627 458.196 331.544 456.525 332.499Z" fill="#282828"/>
<path opacity="0.35" d="M347.365 342.288C346.649 342.367 348.24 348.893 346.49 355.34C345.217 360.115 341.159 367.914 334.237 369.505C326.997 371.097 318.006 365.765 313.869 355.817C311.96 360.194 309.414 367.197 309.016 376.111C308.777 381.92 308.459 388.128 311.323 394.256C317.768 407.944 336.704 413.276 350.786 412.003C360.175 411.127 367.256 407.467 371.075 405C372.029 402.294 372.984 399.031 373.621 395.29C374.655 388.844 374.416 383.194 373.859 379.055C367.574 374.519 363.278 369.824 360.572 366.402C356.753 361.547 351.582 355.021 348.956 345.949C348.559 344.914 347.842 342.208 347.365 342.288Z" fill="#282828"/>
</g>
<defs>
<clipPath id="clip0">
<rect width="842" height="936" fill="white"/>
</clipPath>
</defs>
</svg>
